<?xml version="1.0" encoding="UTF-8"?>
<svg xmlns="http://www.w3.org/2000/svg" width="400" height="186" viewBox="0 0 400 186" role="img" aria-label="Lenguajes más usados">
  <rect x="0.5" y="0.5" width="399" height="185" rx="10" fill="#0d1117" stroke="#1f2733"/>
  <text x="25" y="35" font-family="'Segoe UI', Ubuntu, Sans-Serif" font-size="17" font-weight="600" fill="#6366f1" text-anchor="start">Lenguajes más usados</text>
  <clipPath id="r"><rect x="25" y="55" width="350" height="9" rx="4.5"/></clipPath>
  <g clip-path="url(#r)">
  <rect x="25.00" y="55" width="227.52" height="9" fill="#f1e05a"/>
  <rect x="252.52" y="55" width="77.15" height="9" fill="#3178c6"/>
  <rect x="329.67" y="55" width="24.65" height="9" fill="#e34c26"/>
  <rect x="354.33" y="55" width="6.78" height="9" fill="#3572A5"/>
  <rect x="361.10" y="55" width="4.12" height="9" fill="#c6538c"/>
  <rect x="365.23" y="55" width="3.95" height="9" fill="#ff5a03"/>
  <rect x="369.17" y="55" width="3.34" height="9" fill="#663399"/>
  <rect x="372.51" y="55" width="2.49" height="9" fill="#438eff"/>
  </g>
  <circle cx="31" cy="87" r="5" fill="#f1e05a"/>
  <text x="43" y="92" font-family="'Segoe UI', Ubuntu, Sans-Serif" font-size="14" font-weight="400" fill="#c9d1d9" text-anchor="start">JavaScript <tspan font-size="12" fill="#8b949e">65.0%</tspan></text>
  <circle cx="211" cy="87" r="5" fill="#3178c6"/>
  <text x="223" y="92" font-family="'Segoe UI', Ubuntu, Sans-Serif" font-size="14" font-weight="400" fill="#c9d1d9" text-anchor="start">TypeScript <tspan font-size="12" fill="#8b949e">22.0%</tspan></text>
  <circle cx="31" cy="111" r="5" fill="#e34c26"/>
  <text x="43" y="116" font-family="'Segoe UI', Ubuntu, Sans-Serif" font-size="14" font-weight="400" fill="#c9d1d9" text-anchor="start">HTML <tspan font-size="12" fill="#8b949e">7.0%</tspan></text>
  <circle cx="211" cy="111" r="5" fill="#3572A5"/>
  <text x="223" y="116" font-family="'Segoe UI', Ubuntu, Sans-Serif" font-size="14" font-weight="400" fill="#c9d1d9" text-anchor="start">Python <tspan font-size="12" fill="#8b949e">1.9%</tspan></text>
  <circle cx="31" cy="135" r="5" fill="#c6538c"/>
  <text x="43" y="140" font-family="'Segoe UI', Ubuntu, Sans-Serif" font-size="14" font-weight="400" fill="#c9d1d9" text-anchor="start">SCSS <tspan font-size="12" fill="#8b949e">1.2%</tspan></text>
  <circle cx="211" cy="135" r="5" fill="#ff5a03"/>
  <text x="223" y="140" font-family="'Segoe UI', Ubuntu, Sans-Serif" font-size="14" font-weight="400" fill="#c9d1d9" text-anchor="start">Astro <tspan font-size="12" fill="#8b949e">1.1%</tspan></text>
  <circle cx="31" cy="159" r="5" fill="#663399"/>
  <text x="43" y="164" font-family="'Segoe UI', Ubuntu, Sans-Serif" font-size="14" font-weight="400" fill="#c9d1d9" text-anchor="start">CSS <tspan font-size="12" fill="#8b949e">1.0%</tspan></text>
  <circle cx="211" cy="159" r="5" fill="#438eff"/>
  <text x="223" y="164" font-family="'Segoe UI', Ubuntu, Sans-Serif" font-size="14" font-weight="400" fill="#c9d1d9" text-anchor="start">Objective-C <tspan font-size="12" fill="#8b949e">0.7%</tspan></text>
</svg>
